<svg width="34" height="34" viewBox="0 0 34 34" fill="none" xmlns="http://www.w3.org/2000/svg">
    <path
        d="M13.7349 15.8645C13.7349 15.8645 16.9645 15.6161 16.9645 11.8541C16.9645 8.09209 14.3382 6.24658 11.0021 6.24658H4.82672H4.64927H0V27.328H4.64927H4.82672H10.9666C10.9666 27.328 17.6743 27.5409 17.6743 21.1171C17.6743 21.0817 17.9582 15.8645 13.7349 15.8645ZM4.82672 9.9731H10.1858H10.9666C10.9666 9.9731 12.4572 9.9731 12.4572 12.1735C12.4572 14.3739 11.5699 14.6933 10.5762 14.6933H4.82672V9.9731ZM10.6827 23.566H4.82672V17.923H10.9666C10.9666 17.923 13.2025 17.8875 13.2025 20.8332C13.2025 23.2821 11.5699 23.566 10.6827 23.566Z"
        fill="#070547" />
    <path d="M30.7694 7.48828H22.0742V10.0791H30.7694V7.48828Z" fill="#070547" />
    <path
        d="M26.619 11.6055C18.5272 11.6055 18.5272 19.6973 18.5272 19.6973C18.5272 19.6973 17.9593 27.7537 26.619 27.7537C26.619 27.7537 33.8236 28.1796 33.8236 22.1462H30.0971C30.0971 22.1462 30.2036 24.4176 26.7255 24.4176C26.7255 24.4176 22.999 24.666 22.999 20.762H33.9301C33.9301 20.762 35.1368 11.6055 26.619 11.6055ZM29.9197 17.9228H22.9635C22.9635 17.9228 23.4249 14.6577 26.69 14.6577C29.9551 14.6932 29.9197 17.9228 29.9197 17.9228Z"
        fill="#070547" />
</svg>