<svg xmlns="http://www.w3.org/2000/svg" width="183" height="118" viewBox="0 0 183 118" fill="none">
    <rect x="25" y="6.5" width="133.1" height="102.7" rx="7" fill="#0773AA" />
    <rect x="34.5" y="16.1" width="114.1" height="78.9" rx="4" fill="url(#paint0_linear)" />
    <rect x="0.2" y="96.4" width="182.6" height="12.8" rx="6.4" fill="url(#paint1_linear)" />
    <path
        d="M78.9 48.3C78.9 47.9 78.8 47.5 78.6 47.1 78.4 46.7 78 46.4 77.6 46.4 77 46.4 76.7 46.5 76.3 46.8L65.3 56.3 65.3 56.3C65.2 56.4 64.9 56.6 64.8 56.9 64.7 57.1 64.6 57.4 64.6 57.6 64.6 58 64.7 58.2 64.8 58.4 64.9 58.7 65 58.9 65.3 59L76.3 68.5C76.4 68.8 76.7 68.8 76.8 68.9 77 69 77.1 69 77.3 69H77.3 77.3C77.6 69 77.8 69 78 68.9 78.1 68.8 78.4 68.7 78.6 68.4 78.8 67.9 78.9 67.6 78.9 67.1 78.9 66.6 78.7 66.2 78.4 65.9L68.8 57.7 78.4 49.5C78.7 49.2 78.9 48.8 78.9 48.3Z"
        fill="#F5AD1E" />
    <path
        d="M97.3 39.8C97 39.3 96.8 39 96.4 38.9 95.8 38.7 95.4 38.7 95.1 39.1 94.8 39.3 94.4 39.7 94.3 40.2L83.3 74.5C83.2 75 83.2 75.4 83.4 75.9 83.6 76.3 83.8 76.7 84.3 76.8H84.5 84.7C85.2 76.8 85.5 76.7 85.8 76.5 86 76.2 86.2 76 86.3 75.6L97.4 41.1C97.5 40.8 97.5 40.3 97.3 39.8Z"
        fill="#F5AD1E" />
    <path
        d="M115.3 56.3L104.1 46.8C103.8 46.5 103.4 46.4 103 46.3 102.5 46.4 102.2 46.5 101.8 47 101.6 47.4 101.5 47.7 101.5 48.2 101.6 48.7 101.7 49.1 102.2 49.4L111.6 57.6 102.2 65.8C101.7 66.1 101.5 66.5 101.5 67 101.5 67.4 101.6 67.8 101.8 68.3 101.9 68.5 102.2 68.7 102.4 68.8 102.6 68.9 102.8 68.9 103.1 68.9H103.1 103.1C103.3 68.9 103.5 68.9 103.6 68.8 103.8 68.7 104 68.5 104.1 68.4L115.3 58.9C115.5 58.8 115.6 58.6 115.7 58.3L115.7 58.3 115.7 58.3C115.8 58.1 115.9 57.8 115.9 57.6 115.9 57.4 115.8 57.1 115.7 56.9L115.7 56.9C115.5 56.8 115.4 56.5 115.3 56.3L115.3 56.3Z"
        fill="#F5AD1E" />
    <path
        d="M81.4 47.8C81.4 47.3 81.3 46.9 81.1 46.6 80.8 46.1 80.5 45.9 80 45.9 79.5 45.9 79.1 46 78.8 46.2L67.7 55.7 67.7 55.7C67.6 55.8 67.4 56.1 67.3 56.3 67.2 56.6 67.1 56.8 67.1 57 67.1 57.4 67.2 57.6 67.3 57.9 67.4 58.1 67.5 58.4 67.7 58.5L78.8 68C78.9 68.2 79.1 68.2 79.2 68.3 79.5 68.5 79.6 68.5 79.8 68.5H79.8 79.8C80 68.5 80.3 68.5 80.5 68.3 80.6 68.2 80.8 68.1 81.1 67.9 81.3 67.4 81.4 67 81.4 66.5 81.4 66.1 81.2 65.7 80.8 65.3L71.3 57.2 80.8 49C81.2 48.6 81.4 48.3 81.4 47.8Z"
        fill="#F92C2E" />
    <path
        d="M99.7 39.3C99.5 38.8 99.3 38.4 98.8 38.3 98.3 38.2 97.9 38.2 97.6 38.5 97.2 38.8 96.9 39.1 96.8 39.6L85.7 74C85.6 74.5 85.6 74.8 85.8 75.3 86.1 75.8 86.3 76.1 86.8 76.3H87 87.2C87.7 76.3 88 76.1 88.2 75.9 88.5 75.7 88.7 75.4 88.8 75.1L99.9 40.6C100 40.2 100 39.7 99.7 39.3Z"
        fill="#F92C2E" />
    <path
        d="M117.7 55.7L106.6 46.2C106.2 46 105.9 45.9 105.4 45.7 105 45.9 104.6 46 104.3 46.5 104.1 46.8 104 47.2 104 47.7 104.1 48.1 104.2 48.5 104.6 48.9L114.1 57 104.6 65.2C104.2 65.6 104 65.9 104 66.4 104 66.9 104.1 67.3 104.3 67.7 104.4 68 104.6 68.1 104.9 68.2 105.1 68.3 105.3 68.3 105.5 68.3H105.5 105.5C105.8 68.3 106 68.3 106.1 68.2 106.2 68.1 106.5 68 106.6 67.9L117.7 58.4C118 58.2 118.1 58 118.2 57.8L118.2 57.8 118.2 57.8C118.3 57.5 118.4 57.3 118.4 57 118.4 56.8 118.3 56.6 118.2 56.3L118.2 56.3C118 56.2 117.8 56 117.7 55.7L117.7 55.7Z"
        fill="#F92C2E" />
    <path
        d="M121.5 24.2C121.5 24.8 121.7 25.4 122.2 25.9 122.7 26.4 123.2 26.7 124 26.7 124.7 26.7 125.3 26.4 125.7 25.9 126.2 25.4 126.5 24.8 126.5 24.2 126.5 23.4 126.2 22.8 125.7 22.3 125.3 21.8 124.7 21.6 124 21.6 123.2 21.6 122.7 21.8 122.2 22.3 121.7 22.8 121.5 23.4 121.5 24.2Z"
        fill="#F5AD1E" />
    <path
        d="M129.3 24.2C129.3 24.8 129.5 25.4 130 25.9 130.5 26.4 131 26.7 131.7 26.7 132.4 26.7 132.9 26.4 133.4 25.9 133.9 25.4 134.1 24.8 134.1 24.2 134.1 23.4 133.9 22.8 133.4 22.3 132.9 21.8 132.4 21.6 131.7 21.6 131 21.6 130.5 21.8 130 22.3 129.5 22.8 129.3 23.4 129.3 24.2Z"
        fill="#F5AD1E" />
    <path
        d="M137 24.2C137 24.8 137.3 25.4 137.7 25.9 138.2 26.4 138.9 26.7 139.5 26.7 140.1 26.7 140.7 26.4 141.2 25.9 141.7 25.4 141.9 24.8 141.9 24.2 141.9 23.4 141.7 22.8 141.2 22.3 140.7 21.8 140.1 21.6 139.5 21.6 138.8 21.6 138.2 21.8 137.7 22.3 137.3 22.8 137 23.4 137 24.2Z"
        fill="#F5AD1E" />
    <rect x="25" y="91.8" width="133.1" height="4.6" style="fill-opacity:0.2;fill:url(#paint2_linear)" />
    <path d="M77.8 96.4H105.2V99.1C105.2 100.7 103.9 102.1 102.2 102.1H80.8C79.2 102.1 77.8 100.7 77.8 99.1V96.4Z"
        fill="url(#paint3_linear)" />
    <defs>
        <linearGradient id="paint0_linear" x1="91.5245" y1="16.05" x2="91.5245" y2="94.9113"
            gradientUnits="userSpaceOnUse">
            <stop stop-color="#FCFCF3" />
            <stop offset="1" stop-color="#D7E7EF" />
        </linearGradient>
        <linearGradient id="paint1_linear" x1="91.526" y1="96.4333" x2="91.526" y2="109.248"
            gradientUnits="userSpaceOnUse">
            <stop stop-color="#2896CE" />
            <stop offset="1" stop-color="#0874AB" />
        </linearGradient>
        <linearGradient id="paint2_linear" x1="91.5267" y1="91.8462" x2="91.5267" y2="96.4334"
            gradientUnits="userSpaceOnUse">
            <stop stop-opacity="0" />
            <stop offset="1" />
        </linearGradient>
        <linearGradient id="paint3_linear" x1="91.5236" y1="96.4333" x2="91.5236" y2="102.06"
            gradientUnits="userSpaceOnUse">
            <stop stop-color="#1D92CE" />
            <stop offset="1" stop-color="#205D7B" />
        </linearGradient>
    </defs>
</svg>