<svg xmlns="http://www.w3.org/2000/svg" width="100%" height="100%" viewBox="0 0 182 118" fill="none">
    <g clip-path="url(#clip0)">
        <path
            d="M88.3 37.3L97.3 4.3C97.9 1.8 96-0.8 93.4-0.8H5.4C2.8-0.8 0.9 1.8 1.6 4.3L11 37.4C11.5 39.1 13 40.3 14.8 40.3H84.4C86.2 40.3 87.8 39.1 88.3 37.3Z"
            fill="url(#paint0_linear)" />
        <path
            d="M84.6 37.8L93.7 5.4C94 4.2 93.1 2.9 91.8 2.9H7.6C6.2 2.9 5.3 4.2 5.7 5.5L15.1 37.8C15.3 38.6 16.1 39.2 17 39.2H82.7C83.6 39.2 84.4 38.6 84.6 37.8Z"
            fill="url(#paint1_linear)" />
        <rect x="11.6" y="35.4" width="76.1" height="48.8" rx="4" fill="#0773AA" />
        <path d="M11.6 80.9H87.7C87.7 82.7 86.2 84.2 84.4 84.2H14.9C13.1 84.2 11.6 82.7 11.6 80.9Z" fill="#2896CE" />
        <path d="M42.4 80.9H56.8V81.2C56.8 82.8 55.5 84.2 53.8 84.2H45.4C43.8 84.2 42.4 82.8 42.4 81.2V80.9Z"
            fill="url(#paint2_linear)" />
        <rect x="38" y="63.8" width="23.3" height="14.8" rx="2" fill="#115F87" />
        <rect x="17.8" y="39.2" width="5.8" height="4.3" rx="1" fill="#8CC2DD" />
        <rect x="26.3" y="39.2" width="5.8" height="4.3" rx="1" fill="#8CC2DD" />
        <rect x="34.9" y="39.2" width="5.8" height="4.3" rx="1" fill="#8CC2DD" />
        <rect x="42.5" y="39.2" width="5.8" height="4.3" rx="1" fill="#8CC2DD" />
        <rect x="51.1" y="39.2" width="5.8" height="4.3" rx="1" fill="#8CC2DD" />
        <rect x="67.3" y="39.2" width="5.8" height="4.3" rx="1" fill="#8CC2DD" />
        <rect x="75.7" y="39.2" width="5.8" height="4.3" rx="1" fill="#8CC2DD" />
        <rect x="59.6" y="39.2" width="5.8" height="4.3" rx="1" fill="#8CC2DD" />
        <rect x="17.8" y="44.9" width="10.3" height="4.3" rx="1" fill="#8CC2DD" />
        <rect x="17.8" y="50.7" width="14.3" height="4.3" rx="1" fill="#8CC2DD" />
        <rect x="67.1" y="50.7" width="14.3" height="4.3" rx="1" fill="#8CC2DD" />
        <rect x="38.3" y="56.4" width="22.3" height="4.3" rx="1" fill="#8CC2DD" />
        <rect x="30.8" y="44.9" width="5.8" height="4.3" rx="1" fill="#8CC2DD" />
        <rect x="38.5" y="44.9" width="5.8" height="4.3" rx="1" fill="#8CC2DD" />
        <rect x="47.1" y="44.9" width="5.8" height="4.3" rx="1" fill="#8CC2DD" />
        <rect x="63.3" y="44.9" width="5.8" height="4.3" rx="1" fill="#8CC2DD" />
        <rect x="71.7" y="44.9" width="9.8" height="4.3" rx="1" fill="#8CC2DD" />
        <rect x="55.6" y="44.9" width="5.8" height="4.3" rx="1" fill="#8CC2DD" />
        <rect x="34.6" y="50.7" width="5.8" height="4.3" rx="1" fill="#8CC2DD" />
        <rect x="43.2" y="50.7" width="5.8" height="4.3" rx="1" fill="#8CC2DD" />
        <rect x="59.4" y="50.7" width="5.8" height="4.3" rx="1" fill="#8CC2DD" />
        <rect x="51.7" y="50.7" width="5.8" height="4.3" rx="1" fill="#8CC2DD" />
        <rect x="17.8" y="56.4" width="9.1" height="4.3" rx="1" fill="#8CC2DD" />
        <rect x="72.3" y="56.4" width="9.1" height="4.3" rx="1" fill="#8CC2DD" />
        <rect x="29" y="56.4" width="7.6" height="4.3" rx="1" fill="#8CC2DD" />
        <rect x="62.3" y="56.4" width="7.6" height="4.3" rx="1" fill="#8CC2DD" />
        <path
            d="M31.1 82C28.7 85.8 27.8 91.3 27.8 93L35.5 98.5 36.3 96.6C36.3 96.6 43.1 94.7 47.7 89.7L52.7 84.1C52.7 84.1 54.5 82.4 53.9 81.8 53 81.1 51.4 82 50.8 82.6 49.4 83.9 46.3 86.7 45.7 87.2 45 87.8 44.5 87.7 44.2 87.6L54.4 72.2C54.7 71.6 55 70.2 54.3 69.7 53.6 69.3 52.8 69.8 52.5 70.1L44.6 81.4 44.3 81.1C46.7 77 51.6 68.8 52 68.4 52.4 67.9 52.5 67 51.7 66.4 51 65.8 50.2 66.5 49.9 67L41.3 79.6 41 79.3 48.4 66.9C48.5 66.5 48.5 65.7 47.9 65.3 47.3 64.9 46.6 65.3 46.3 65.6L37.6 78.1 37.2 77.8C38.9 74.9 42.5 68.8 43.4 67.6 44.5 66.1 44 65.5 43.3 64.9 42.7 64.4 41.8 65.4 41.5 66 39.1 69.8 33.5 78.3 31.1 82Z"
            fill="#F2CBAC" />
        <path d="M33.9 102L24.2 95.2 0.8 124.3 21.7 124.3 33.9 102Z" fill="#EE6D67" />
        <path d="M36.6 97.6L27 91.4 23.8 95.4 33.8 102.6 36.6 97.6Z" fill="#F92E30" />
        <rect x="91.4" y="58" width="62.1" height="38.9" rx="2" fill="#204355" />
        <rect x="99.7" y="59.9" width="51.7" height="35.2" rx="2" style="fill-opacity:0.2;fill:black" />
        <rect x="94.3" y="65.8" width="2.4" height="8.6" rx="0.8"
            style="stroke-opacity:0.5;stroke-width:0.4;stroke:white" />
        <rect x="94.9" y="67.9" width="1.3" height="0.3" rx="0.2" style="fill-opacity:0.5;fill:white" />
        <rect x="94.9" y="72.1" width="1.3" height="0.3" rx="0.2" style="fill-opacity:0.5;fill:white" />
        <rect x="94.9" y="70" width="1.3" height="0.3" rx="0.2" style="fill-opacity:0.5;fill:white" />
        <rect x="94.3" y="80.6" width="2.4" height="8.6" rx="0.8"
            style="stroke-opacity:0.5;stroke-width:0.4;stroke:white" />
        <rect x="94.9" y="82.7" width="1.3" height="0.3" rx="0.2" style="fill-opacity:0.5;fill:white" />
        <rect x="94.9" y="86.9" width="1.3" height="0.3" rx="0.2" style="fill-opacity:0.5;fill:white" />
        <rect x="94.9" y="84.8" width="1.3" height="0.3" rx="0.2" style="fill-opacity:0.5;fill:white" />
        <circle cx="95.4" cy="77.5" r="1.9" style="stroke-opacity:0.5;stroke-width:0.3;stroke:white" />
        <circle cx="95.4" cy="77.5" r="0.8" style="stroke-width:0.3;stroke:black" />
        <circle cx="95.4" cy="76.1" r="0.1" fill="white" />
        <circle cx="96.7" cy="77.5" r="0.1" fill="white" />
        <circle cx="94.1" cy="77.5" r="0.1" fill="white" />
        <circle cx="95.4" cy="78.8" r="0.1" fill="white" />
        <path
            d="M148.3 89.3L140 96.3 138.8 94.9C136.8 93.6 132.2 90.8 129.8 89.7 126.8 88.4 125.7 82.8 125.2 84.3 124.9 85.5 123.6 85.5 123 85.3L122.3 83.2C122.3 83.2 120.1 86.9 117.6 85.8L119.7 79.7C119.4 79.5 118.2 78.6 116.2 77 114.3 75.4 114.7 72.4 115.2 71.1L118.4 72.6C119.4 71.3 121.6 68.4 122.5 67.4 123.4 66.4 124.4 66.3 124.8 66.3L133.1 67.3C133.7 67.5 135.1 68.1 136 69.1 137.3 70.5 146.1 86.5 146.6 87.2 147 87.8 147.9 88.8 148.3 89.3Z"
            fill="#F2CBAC" />
        <path d="M129.2 80.3L122.6 75.9 124.7 69.9 128.4 71.8 129.2 80.3Z" fill="#EAB486" />
        <path d="M145.9 69.7C146 70.2 144.9 70.7 144.4 70.9L144 69.3C144.6 69.3 145.8 69.3 145.9 69.7Z"
            fill="#292929" />
        <path
            d="M111.2 75.9L107.5 78.5 107.6 79 111.9 79.6 114.7 78.7 134.5 73.7C137.7 73 144.3 71.3 144.4 71.1 144.5 71 144.2 69.7 144 69.1 134.1 71.2 114.1 75.5 113.5 75.6 112.9 75.7 111.7 75.9 111.2 75.9Z"
            fill="#3E3E3E" />
        <path
            d="M107.7 78.7C107.7 78.9 107.9 79.1 107.6 79.1 107.4 79.2 106.9 79.1 106.8 78.8 106.8 78.6 107.2 78.4 107.5 78.3 107.7 78.3 107.6 78.5 107.7 78.7Z"
            fill="white" />
        <path d="M111.1 79.5L110.4 76.5 110.7 76.2 111.5 79.5 111.1 79.5Z" fill="#8C8C8C" />
        <rect x="114.6" y="77.9" width="1.6" height="9.4" rx="0.8" transform="rotate(-102.758 114.566 77.8896)"
            fill="#D7D7D7" />
        <rect x="114.9" y="77.5" width="1.1" height="6.1" rx="0.5" transform="rotate(-102.758 114.883 77.5271)"
            fill="#252525" />
        <path
            d="M116 76.8C115.6 76.3 115.1 75.1 114.8 74.5L118.4 72.9 124.7 77.3 119.1 79.2C118.2 78.6 116.3 77.2 116 76.8Z"
            fill="#F2CBAB" />
        <path d="M150.2 90.2L141.2 98.5 159.4 120.5 182.6 120.5 150.2 90.2Z" fill="#EE6D67" />
        <path d="M146.4 86.5L138 94.7 141.3 98.9 150.8 90.5 146.4 86.5Z" fill="#F92E30" />
    </g>
    <defs>
        <linearGradient id="paint0_linear" x1="49.3836" y1="-0.754761" x2="49.3836" y2="40.2625"
            gradientUnits="userSpaceOnUse">
            <stop stop-color="#0773AA" />
            <stop offset="1" stop-color="#115F87" />
        </linearGradient>
        <linearGradient id="paint1_linear" x1="49.6477" y1="2.89368" x2="49.6477" y2="39.2218"
            gradientUnits="userSpaceOnUse">
            <stop stop-color="#FBFBF3" />
            <stop offset="1" stop-color="#DAE8EF" />
        </linearGradient>
        <linearGradient id="paint2_linear" x1="49.6338" y1="80.8794" x2="49.6338" y2="84.1911"
            gradientUnits="userSpaceOnUse">
            <stop stop-color="#1D92CE" />
            <stop offset="1" stop-color="#205D7B" />
        </linearGradient>
        <clipPath id="clip0">
            <rect width="182" height="118" fill="white" />
        </clipPath>
    </defs>
</svg>