<svg width="30" height="24" viewBox="0 0 30 24" fill="none" xmlns="http://www.w3.org/2000/svg">
    <g clip-path="url(#clip0)">
        <path d="M3.33333 3.31797V19.9078H26.6667V3.31797H3.33333ZM26.6667 0C28.5 0 30 1.49309 30 3.31797V19.9078C30 21.7327 28.5 23.2258 26.6667 23.2258H3.33333C1.5 23.2258 0 21.7327 0 19.9078V3.31797C0 1.49309 1.5 0 3.33333 0H26.6667Z" fill="black"/>
        <path fill-rule="evenodd" clip-rule="evenodd" d="M4.16369 2.48828H0.207031C0.455365 3.21824 0.872031 3.90506 1.45703 4.48736L11.2604 14.2439C11.7428 14.7245 12.3157 15.1058 12.9463 15.3659C13.5769 15.6261 14.2528 15.76 14.9354 15.76C15.618 15.76 16.2939 15.6261 16.9245 15.3659C17.555 15.1058 18.1278 14.7245 18.6103 14.2439L28.4137 4.48736C28.997 3.90506 29.4137 3.21824 29.662 2.48828H25.707L16.2537 11.8981C16.0805 12.0706 15.8749 12.2074 15.6485 12.3008C15.4222 12.3941 15.1795 12.4422 14.9345 12.4422C14.6895 12.4422 14.4469 12.3941 14.2206 12.3008C13.9942 12.2074 13.7886 12.0706 13.6154 11.8981L4.16369 2.48828Z" fill="black"/>
    </g>
    <defs>
        <clipPath id="clip0">
            <rect width="30" height="23.2258" fill="white"/>
        </clipPath>
    </defs>
</svg>
