<svg xmlns="http://www.w3.org/2000/svg" width="26" height="26" viewBox="0 0 26 26" fill="none">
    <path d="M13.15 6.47C9.6 6.47 6.66 9.38 6.66 13 6.66 16.62 9.55 19.53 13.15 19.53 16.75 19.53 19.64 16.57 19.64 13 19.64 9.43 16.7 6.47 13.15 6.47ZM13.15 17.18C10.87 17.18 8.99 15.29 8.99 13 8.99 10.71 10.87 8.82 13.15 8.82 15.43 8.82 17.31 10.71 17.31 13 17.31 15.29 15.43 17.18 13.15 17.18Z" fill="black"/>
    <path d="M19.9 7.8C20.71 7.8 21.37 7.14 21.37 6.32 21.37 5.51 20.71 4.84 19.9 4.84 19.08 4.84 18.43 5.51 18.43 6.32 18.43 7.14 19.08 7.8 19.9 7.8Z" fill="black"/>
    <path d="M23.7 2.5C22.38 1.12 20.5 0.41 18.37 0.41H7.92C3.51 0.41 0.57 3.36 0.57 7.8V18.25C0.57 20.44 1.28 22.33 2.7 23.71 4.07 25.03 5.89 25.69 7.97 25.69H18.32C20.5 25.69 22.33 24.98 23.65 23.71 25.02 22.38 25.73 20.49 25.73 18.3V7.8C25.73 5.66 25.02 3.82 23.7 2.5ZM23.5 18.3C23.5 19.88 22.94 21.16 22.03 22.02 21.11 22.89 19.84 23.35 18.32 23.35H7.97C6.45 23.35 5.18 22.89 4.27 22.02 3.36 21.11 2.9 19.83 2.9 18.25V7.8C2.9 6.27 3.36 5 4.27 4.08 5.13 3.21 6.45 2.75 7.97 2.75H18.42C19.95 2.75 21.21 3.21 22.13 4.13 22.99 5.05 23.5 6.32 23.5 7.8V18.3Z" fill="black"/>
</svg>
