<svg width="30" height="30" viewBox="0 0 30 30" fill="none" xmlns="http://www.w3.org/2000/svg">
    <path fill-rule="evenodd" clip-rule="evenodd"
        d="M0 2.5A2.5 2.5 0 012.5 0h25A2.5 2.5 0 0130 2.5v25a2.5 2.5 0 01-2.5 2.5h-25A2.5 2.5 0 010 27.5v-25zm11.88 8.94h4.06v2.06c.62-1.25 2.06-2.25 4.37-2.25 4.32 0 5.32 2.31 5.32 6.63v7.93h-4.38v-6.93c0-2.5-.63-3.82-2.06-3.82-2.07 0-2.94 1.44-2.94 3.75v7h-4.38V11.44zm-7.5 14.19h4.37V11.24H4.37v14.38zm5-19.07a2.81 2.81 0 11-5.63 0 2.81 2.81 0 015.63 0z"
        fill="#070547" />
</svg>