<svg width="1680" height="1050" viewBox="0 0 1680 1050" fill="none" xmlns="http://www.w3.org/2000/svg">
    <rect width="1680" height="1050" fill="black" />
    <path d="M1353.12 40.1875L1358.44 36.4375L1353.12 33V40.1875Z" fill="#A4AAB2" />
    <path
        d="M1362.44 29.25H1347.56C1346.12 29.25 1345 30.375 1345 31.8125V41.0625C1345 42.5 1346.12 43.625 1347.56 43.625H1354.06V45.5H1351.25C1350.75 45.5 1350.31 45.9375 1350.31 46.4375C1350.31 46.9375 1350.75 47.375 1351.25 47.375H1358.75C1359.25 47.375 1359.69 46.9375 1359.69 46.4375C1359.69 45.9375 1359.25 45.5 1358.75 45.5H1355.94V43.625H1362.44C1363.87 43.625 1365 42.5 1365 41.0625V31.8125C1365 30.375 1363.87 29.25 1362.44 29.25ZM1363.12 40.6875C1363.12 41.25 1362.62 41.75 1362.06 41.75H1347.94C1347.37 41.75 1346.88 41.25 1346.88 40.6875V32.1875C1346.88 31.625 1347.37 31.125 1347.94 31.125H1362.06C1362.62 31.125 1363.12 31.625 1363.12 32.1875V40.6875Z"
        fill="#A4AAB2" />
    <path d="M1525.12 46.125V40.5H1528.88V46.125H1533.88V38H1537L1527 29.25L1517 38H1520.12V46.125H1525.12Z"
        fill="#A4AAB2" />
    <path
        d="M1582 28C1576.5 28 1572 32.5 1572 38C1572 43.5 1576.5 48 1582 48C1587.5 48 1592 43.5 1592 38C1592 32.5 1587.5 28 1582 28ZM1583 45H1581V43H1583V45ZM1585.06 37.25L1584.19 38.1875C1583.44 38.875 1583 39.5 1583 41H1581V40.5C1581 39.375 1581.44 38.375 1582.19 37.6875L1583.44 36.4375C1583.75 36.0625 1584 35.5625 1584 35C1584 33.875 1583.12 33 1582 33C1580.88 33 1580 33.875 1580 35H1578C1578 32.8125 1579.81 31 1582 31C1584.19 31 1586 32.8125 1586 35C1586 35.875 1585.62 36.6875 1585.06 37.25Z"
        fill="#A4AAB2" />
    <rect x="1629" y="25" width="26" height="26" rx="13" fill="#67AE3F" />
    <path
        d="M50 725C50 722.239 52.2386 720 55 720H270C272.761 720 275 722.239 275 725V765C275 767.761 272.761 770 270 770H55C52.2386 770 50 767.761 50 765V725Z"
        fill="#C10C0C" />
    <path
        d="M91 729C94.1 729 97.2 729.9 99.9 731.7C102.5 733.5 104.6 736 105.8 738.9C107 741.8 107.3 745 106.7 748.2C106.1 751.3 104.5 754.1 102.3 756.4C100 758.6 97.2 760.1 94 760.7C90.9 761.3 87.7 761 84.8 759.7C81.9 758.5 79.4 756.4 77.6 753.8C75.9 751.1 75 748 75 744.9C75 740.6 76.7 736.6 79.7 733.6C82.7 730.7 86.8 729 91 729ZM86.4 749.7C86.4 749.9 86.5 750.1 86.6 750.3C86.7 750.4 86.9 750.6 87 750.7C87.2 750.8 87.4 750.9 87.6 750.9C87.8 750.9 88.1 750.9 88.2 750.8C89.7 749.9 95.1 746.8 96.3 746.1C96.5 746 96.7 745.9 96.8 745.7C96.9 745.5 96.9 745.3 97 745.1C97 744.9 96.9 744.6 96.8 744.4C96.7 744.2 96.6 744.1 96.4 743.9C95.6 743.5 89.2 739.8 88.4 739.3C88.2 739.2 88 739.1 87.7 739.1C87.5 739.1 87.3 739.2 87.1 739.3C86.9 739.4 86.7 739.6 86.6 739.8C86.5 740 86.4 740.2 86.4 740.4C86.4 742 86.4 748.1 86.4 749.7Z"
        fill="white" />
    <path
        d="M310 720.5H525C527.485 720.5 529.5 722.515 529.5 725V765C529.5 767.485 527.485 769.5 525 769.5H310C307.515 769.5 305.5 767.485 305.5 765V725C305.5 722.515 307.515 720.5 310 720.5Z"
        fill="black" fill-opacity="0.15" stroke="white" />
    <path
        d="M360.581 733.612C359.037 733.125 357.339 732.916 355.711 732.916C352.998 732.916 350.077 733.473 348.059 735.003C346.042 733.473 343.12 732.916 340.407 732.916C337.694 732.916 334.772 733.473 332.755 735.003V755.386C332.755 755.733 333.103 756.081 333.45 756.081C333.59 756.081 333.659 756.012 333.798 756.012C335.676 755.107 338.39 754.481 340.407 754.481C343.12 754.481 346.042 755.038 348.059 756.568C349.937 755.386 353.346 754.481 355.711 754.481C358.007 754.481 360.372 754.899 362.32 755.942C362.459 756.012 362.529 756.012 362.668 756.012C363.016 756.012 363.363 755.664 363.363 755.316V735.003C362.529 734.377 361.624 733.959 360.581 733.612ZM360.581 752.394C359.05 751.907 357.381 751.699 355.711 751.699C353.346 751.699 349.937 752.603 348.059 753.786V737.786C349.937 736.603 353.346 735.699 355.711 735.699C357.381 735.699 359.05 735.907 360.581 736.394V752.394Z"
        fill="#68707A" />
    <path
        d="M355.711 741.264C356.936 741.264 358.118 741.389 359.19 741.625V739.511C358.09 739.302 356.908 739.177 355.711 739.177C353.346 739.177 351.203 739.58 349.45 740.332V742.641C351.023 741.751 353.207 741.264 355.711 741.264Z"
        fill="#68707A" />
    <path
        d="M349.45 744.033V746.342C351.023 745.452 353.207 744.965 355.711 744.965C356.936 744.965 358.118 745.09 359.19 745.327V743.212C358.09 743.003 356.908 742.878 355.711 742.878C353.346 742.878 351.203 743.295 349.45 744.033Z"
        fill="#68707A" />
    <path
        d="M355.711 746.593C353.346 746.593 351.203 746.996 349.45 747.748V750.057C351.023 749.167 353.207 748.68 355.711 748.68C356.936 748.68 358.118 748.805 359.19 749.041V746.927C358.09 746.704 356.908 746.593 355.711 746.593Z"
        fill="#68707A" />
    <text fill="white" xml:space="preserve" style="white-space: pre" font-family="Roboto" font-size="15"
        letter-spacing="0em">
        <tspan x="1380" y="43.127">Browse Classes</tspan>
    </text>
    <text fill="white" xml:space="preserve" style="white-space: pre" font-family="Helvetica" font-size="9"
        letter-spacing="0em">
        <tspan x="1636.25" y="41.1047">CA</tspan>
    </text>
    <text fill="white" xml:space="preserve" style="white-space: pre" font-family="Montserrat" font-size="23"
        letter-spacing="0em">
        <tspan x="50" y="530.746">Conquer Series</tspan>
    </text>
    <text fill="white" xml:space="preserve" style="white-space: pre" font-family="Montserrat" font-size="24"
        letter-spacing="0em">
        <tspan x="228" y="531.104">| Episode</tspan>
    </text>
    <text fill="white" xml:space="preserve" style="white-space: pre" font-family="Montserrat" font-size="24"
        letter-spacing="0em">
        <tspan x="348" y="531.104">1</tspan>
    </text>
    <text fill="white" xml:space="preserve" style="white-space: pre" font-family="Montserrat" font-size="36"
        letter-spacing="0em">
        <tspan x="50" y="586.906">Understanding The Battlefield</tspan>
    </text>
    <text fill="white" xml:space="preserve" style="white-space: pre" font-family="Roboto" font-size="18"
        letter-spacing="0em">
        <tspan x="50" y="631.652">Understanding the battlefield is the first key to winning the war for sexual purity.
            In </tspan>
        <tspan x="50" y="652.652">this episode you will discover hell&#x2019;s strategies against the 21st Century
            Church and </tspan>
        <tspan x="50" y="673.652">be introduced to the four components of the noose of sexual bondage Learn the </tspan>
        <tspan x="50" y="694.652">first key steps to freedom and how to stay pure.</tspan>
    </text>
    <text fill="white" xml:space="preserve" style="white-space: pre" font-family="Montserrat" font-size="16"
        letter-spacing="0em">
        <tspan x="147.516" y="751.736">Play Episode</tspan>
    </text>
    <text fill="white" xml:space="preserve" style="white-space: pre" font-family="Montserrat" font-size="16"
        letter-spacing="0em">
        <tspan x="405.016" y="751.736">Study Guide</tspan>
    </text>
    <path
        d="M950 48.3681C948.13 48.3681 946.15 48.3681 944.28 48.3681C943.95 48.3681 943.73 48.2566 943.62 48.0335C942.41 45.6912 941.2 43.4604 939.99 41.2296C939.77 41.0066 939.66 40.895 939.44 40.895C939.11 40.895 938.67 40.895 938.34 40.895C938.34 43.3489 938.34 45.8027 938.34 48.3681C936.25 48.3681 934.27 48.3681 932.18 48.3681C932.18 41.3412 932.18 34.4258 932.18 27.3989C932.29 27.3989 932.4 27.3989 932.4 27.3989C935.59 27.3989 938.67 27.3989 941.75 27.3989C943.73 27.3989 945.6 27.7335 947.14 28.9604C948.46 29.9643 949.12 31.3027 949.34 32.9758C949.45 33.9796 949.45 34.9835 949.12 35.8758C948.68 37.6604 947.58 38.8873 945.93 39.6681C945.82 39.6681 945.71 39.7796 945.6 39.7796C945.6 39.8912 945.6 39.8912 945.71 40.0027C947.03 42.345 948.46 44.5758 949.89 46.9181C949.89 47.0296 949.89 47.0296 950 47.1412C950 47.4758 950 47.9219 950 48.3681ZM938.34 36.4335C939.11 36.4335 939.77 36.4335 940.54 36.4335C940.76 36.4335 940.98 36.4335 941.31 36.3219C942.63 36.0989 943.4 34.9835 943.18 33.645C943.07 32.9758 942.74 32.5296 942.08 32.4181C940.87 31.9719 939.66 32.0835 938.34 32.0835C938.34 33.5335 938.34 34.9835 938.34 36.4335ZM906.77 27.3989C904.79 27.3989 902.81 27.3989 900.72 27.3989C900.83 31.4143 900.83 35.3181 900.94 39.3335C900.72 39.2219 900.72 39.1104 900.61 38.9989C898.41 35.2066 896.1 31.4143 893.9 27.7335C893.79 27.3989 893.68 27.3989 893.35 27.3989C891.26 27.3989 889.28 27.3989 887.19 27.3989C887.08 27.3989 886.97 27.3989 886.86 27.3989C886.86 34.4258 886.86 41.3412 886.86 48.3681C888.84 48.3681 890.82 48.3681 892.8 48.3681C892.8 44.3527 892.69 40.4489 892.69 36.4335C892.69 36.4335 892.69 36.4335 892.8 36.4335C892.8 36.545 892.91 36.7681 893.02 36.8796C895.11 40.4489 897.31 43.9066 899.4 47.5873C899.84 48.145 900.17 48.3681 900.94 48.3681C902.81 48.3681 904.79 48.3681 906.77 48.3681C906.77 41.3412 906.77 34.3143 906.77 27.3989ZM850.67 40.0027C850.67 38.4412 850.67 36.9912 850.67 35.4296C850.56 35.4296 850.34 35.4296 850.23 35.4296C847.7 35.4296 845.17 35.4296 842.75 35.4296C842.42 35.4296 842.31 35.4296 842.31 35.095C842.31 34.2027 842.31 33.4219 842.31 32.5296C842.31 32.195 842.42 32.0835 842.75 32.0835C845.39 32.0835 848.03 32.0835 850.67 32.0835C850.89 32.0835 851 32.0835 851.22 32.0835C851.22 30.5219 851.22 28.9604 851.22 27.3989C846.16 27.3989 841.21 27.3989 836.26 27.3989C836.26 34.4258 836.26 41.3412 836.26 48.3681C841.43 48.3681 846.6 48.3681 851.77 48.3681C851.77 46.695 851.77 45.1335 851.77 43.5719C848.58 43.5719 845.5 43.5719 842.31 43.5719C842.31 42.345 842.31 41.2296 842.31 40.0027C845.17 40.0027 847.92 40.0027 850.67 40.0027ZM927.01 27.3989C921.95 27.3989 917 27.3989 912.05 27.3989C912.05 34.4258 912.05 41.3412 912.05 48.3681C917.22 48.3681 922.39 48.3681 927.56 48.3681C927.56 46.695 927.56 45.1335 927.56 43.5719C924.37 43.5719 921.29 43.5719 918.21 43.5719C918.21 42.345 918.21 41.2296 918.21 40.0027C920.96 40.0027 923.71 40.0027 926.46 40.0027C926.46 38.4412 926.46 36.9912 926.46 35.4296C926.24 35.4296 926.13 35.4296 926.02 35.4296C923.49 35.4296 921.07 35.4296 918.54 35.4296C918.21 35.4296 918.1 35.3181 918.1 34.9835C918.1 34.2027 918.1 33.3104 918.1 32.4181C918.1 32.195 918.21 32.0835 918.43 32.0835C919.75 32.0835 921.07 32.0835 922.28 32.0835C923.82 32.0835 925.36 32.0835 927.01 32.0835C927.01 30.5219 927.01 28.9604 927.01 27.3989ZM871.02 32.0835C871.02 30.5219 871.02 28.9604 871.02 27.3989C866.18 27.3989 861.23 27.3989 856.39 27.3989C856.39 34.4258 856.39 41.3412 856.39 48.3681C858.48 48.3681 860.57 48.3681 862.66 48.3681C862.66 45.6912 862.66 43.1258 862.66 40.5604C865.19 40.5604 867.72 40.5604 870.36 40.5604C870.36 38.9989 870.36 37.4373 870.36 35.9873C867.72 35.9873 865.19 35.9873 862.55 35.9873C862.55 34.6489 862.55 33.4219 862.55 32.0835C865.41 32.0835 868.27 32.0835 871.02 32.0835ZM875.31 48.3681C877.4 48.3681 879.38 48.3681 881.47 48.3681C881.47 41.3412 881.47 34.3143 881.47 27.3989C879.49 27.3989 877.51 27.3989 875.53 27.3989C875.53 27.3989 875.42 27.3989 875.31 27.3989C875.31 34.4258 875.31 41.3412 875.31 48.3681ZM760.36 28.0681C763.11 28.0681 765.53 28.8489 767.62 30.745C769.49 32.5296 770.48 34.6489 770.7 37.2143C770.92 39.445 770.59 41.6758 769.38 43.5719C767.84 46.3604 765.42 48.0335 762.23 48.4796C759.15 49.0373 756.4 48.4796 753.87 46.5835C751.67 44.7989 750.35 42.5681 750.02 39.6681C749.69 36.8796 750.24 34.3143 752 31.9719C753.65 29.7412 755.96 28.5143 758.71 28.1796C758.93 28.1796 759.26 28.0681 759.48 28.0681C759.81 28.0681 760.03 28.0681 760.36 28.0681ZM768.5 38.2181C768.5 37.995 768.5 37.6604 768.5 37.3258C768.28 35.4296 767.62 33.645 766.3 32.3066C764.87 30.8566 763.11 30.0758 761.13 29.8527C757.94 29.6296 755.3 30.745 753.54 33.4219C752.44 35.2066 752.11 37.3258 752.33 39.445C752.44 41.3412 753.21 43.0143 754.42 44.3527C756.18 46.0258 758.16 46.8066 760.58 46.8066C762.56 46.695 764.32 46.1373 765.75 44.7989C767.73 43.0143 768.5 40.7835 768.5 38.2181ZM743.64 22.1566C741.11 20.8181 738.47 20.7066 735.72 21.4873C731.87 22.7143 729.89 25.9489 730.55 29.8527C730.99 31.7489 732.09 33.0873 733.85 33.9796C735.17 34.6489 736.49 35.095 737.81 35.6527C739.02 36.0989 740.34 36.545 741.55 37.1027C742.87 37.7719 743.86 38.6643 744.19 40.1143C744.85 42.6796 743.97 45.0219 741.33 46.2489C738.47 47.5873 735.72 47.2527 733.08 45.3566C732.53 44.9104 732.09 44.3527 731.54 43.795C730.99 44.2412 730.55 44.6873 730 45.1335C730.66 45.6912 731.21 46.3604 731.87 46.8066C734.84 49.1489 738.14 49.4835 741.66 48.2566C745.73 46.9181 747.38 43.1258 746.28 39.2219C745.73 37.3258 744.41 36.0989 742.65 35.3181C741.33 34.7604 740.01 34.3143 738.8 33.8681C737.48 33.4219 736.16 32.9758 734.95 32.3066C731.76 30.2989 732.09 26.1719 734.51 24.2758C736.82 22.4912 740.45 22.3796 742.98 24.0527C743.53 24.4989 744.08 25.0566 744.74 25.5027C745.18 25.1681 745.73 24.7219 746.17 24.2758C745.62 23.495 744.74 22.7143 743.64 22.1566ZM788.08 28.5143C788.08 28.7373 788.08 28.8489 788.08 29.0719C788.08 32.8643 788.08 36.6566 788.08 40.4489C788.08 41.1181 787.97 41.7873 787.86 42.4566C787.53 44.4643 786.43 45.8027 784.45 46.4719C783.57 46.695 782.69 46.8066 781.81 46.695C779.72 46.4719 778.29 45.4681 777.52 43.4604C777.19 42.5681 777.08 41.5643 777.08 40.4489C777.08 36.6566 777.08 32.7527 777.08 28.9604C777.08 28.8489 777.08 28.6258 777.08 28.5143C776.31 28.5143 775.65 28.5143 774.99 28.5143C774.99 28.7373 774.99 28.8489 774.99 28.9604C774.99 32.7527 774.99 36.4335 774.99 40.1143C774.99 40.895 774.99 41.6758 775.1 42.4566C775.54 45.1335 776.86 47.1412 779.5 48.145C780.82 48.7027 782.36 48.8143 783.79 48.5912C786.65 48.2566 788.52 46.8066 789.62 44.1296C790.06 43.0143 790.17 41.7873 790.17 40.5604C790.17 36.6566 790.17 32.8643 790.17 28.9604C790.17 28.8489 790.17 28.6258 790.17 28.5143C789.4 28.5143 788.74 28.5143 788.08 28.5143ZM797.76 46.2489C797.76 40.3373 797.76 34.4258 797.76 28.5143C797.1 28.5143 796.44 28.5143 795.78 28.5143C795.78 35.095 795.78 41.5643 795.78 48.145C799.52 48.145 803.26 48.145 807 48.145C807 47.5873 807 46.9181 807 46.2489C803.92 46.2489 800.84 46.2489 797.76 46.2489Z"
        fill="url(#paint0_linear)" />
    <path
        d="M826.58 36.9912C826.8 36.9912 826.91 36.8796 827.02 36.8796C829.33 35.9873 830.98 34.6489 831.75 32.3066C832.08 31.3027 832.19 30.2989 832.08 29.1835C831.97 26.7296 830.87 24.8335 828.78 23.495C826.91 22.3796 824.93 21.9335 822.84 21.9335C819.32 21.8219 815.69 21.9335 812.06 21.9335C812.06 21.9335 811.95 21.9335 811.84 21.9335C811.84 30.745 811.84 39.5566 811.84 48.2566C813.93 48.2566 816.02 48.2566 818.11 48.2566C818.11 45.6912 818.11 43.2373 818.11 40.6719V33.1989C818.11 31.1912 818.11 29.1835 818.11 27.0643H818.22C819.87 27.0643 821.41 27.0643 822.95 27.1758C823.83 27.2873 824.6 27.6219 825.15 28.2912C826.36 29.6296 825.81 31.9719 824.16 32.6412C823.94 32.7527 823.83 32.7527 823.61 32.7527C823.61 32.8643 823.5 32.8643 823.5 32.8643C823.17 32.9758 822.84 32.9758 822.62 33.0873C818.88 34.2027 820.64 38.4412 820.64 38.4412C822.4 41.6758 824.16 44.7989 825.81 48.0335C826.03 48.2566 826.14 48.3681 826.36 48.3681C828.67 48.3681 830.87 48.3681 833.18 48.3681C833.29 48.3681 833.4 48.2566 833.51 48.2566C831.2 44.4643 828.89 40.7835 826.58 36.9912Z"
        fill="url(#paint1_linear)" />
    <defs>
        <linearGradient id="paint0_linear" x1="840" y1="21" x2="840" y2="48.9546" gradientUnits="userSpaceOnUse">
            <stop stop-color="#FEF8D3" />
            <stop offset="1" stop-color="#FCC053" />
        </linearGradient>
        <linearGradient id="paint1_linear" x1="840" y1="21" x2="840" y2="48.9546" gradientUnits="userSpaceOnUse">
            <stop stop-color="#FEF8D3" />
            <stop offset="1" stop-color="#FCC053" />
        </linearGradient>
    </defs>
</svg>