<svg xmlns="http://www.w3.org/2000/svg" width="182" height="118" viewBox="0 0 182 118" fill="none">
    <g clip-path="url(#clip0)">
        <path
            d="M87.6 65.3C79.7 69.5 68.3 70.5 64.5 70.3L53.4 55 57.4 53.8C57.4 53.8 61.5 40.9 72 32.8L83.7 24C83.7 24 87.4 20.9 88.6 22.1 90.2 23.9 88.2 26.7 87 27.9 84.2 30.5 78.3 35.9 77.2 37 76 38.2 76.2 39.3 76.4 39.7L87.6 49.8 87.6 65.3Z"
            fill="#F2CBAC" />
        <path d="M46.1 57.6L59.9 76.9 -1.4 117.9 -0.8 78.2 46.1 57.6Z" fill="#EE6D67" />
        <path d="M55.3 53L68 71.9 59.6 77.5 44.8 57.7 55.3 53Z" fill="#F92E30" />
        <rect x="75.8" y="11.3" width="36.7" height="77.1" fill="url(#paint0_linear)" />
        <path
            d="M108.3 1.9C104.2 1.4 95.7 1.4 94.1 1.4H93.5C91.9 1.4 83.4 1.4 79.3 1.9 74.8 2.4 72.5 5.4 72.5 10.7V83.1C72.5 88.3 74.8 91.3 79.3 91.9 83.4 92.3 91.9 92.3 93.6 92.3H94.1C95.8 92.3 104.2 92.3 108.3 91.9 112.8 91.3 115.1 88.3 115.1 83.1V10.7C115.1 5.4 112.8 2.4 108.3 1.9H108.3ZM97.4 86.1H90.2C89.5 86.1 88.8 85.8 88.3 85.2 87.8 84.6 87.6 83.8 87.6 82.9 87.6 82.1 87.8 81.2 88.3 80.6 88.8 80 89.5 79.7 90.2 79.7H97.4C98.1 79.7 98.7 80.1 99.2 80.7 99.7 81.3 99.9 82.1 99.9 82.9 99.9 83.8 99.7 84.5 99.2 85.1 98.7 85.7 98.1 86.1 97.4 86.1V86.1ZM110.3 72C110.3 73.2 109.5 74.2 108.6 74.2H79C78.6 74.2 78.1 73.9 77.8 73.5 77.5 73.1 77.3 72.6 77.3 72V16.3C77.3 15.1 78.1 14.2 79 14.2H108.6C109.6 14.2 110.3 15.1 110.3 16.3V72H110.3Z"
            fill="#0773AA" />
        <rect x="109.9" y="42" width="9.3" height="6.2" rx="2" transform="rotate(0.555699 109.867 41.9791)"
            fill="#F2CBAC" />
        <rect x="108.5" y="33.7" width="10.9" height="6.2" rx="2" transform="rotate(0.555699 108.523 33.6715)"
            fill="#F2CBAC" />
        <rect x="108.5" y="25.4" width="11.1" height="6.2" rx="2" transform="rotate(0.555699 108.457 25.3615)"
            fill="#F2CBAC" />
        <rect x="111.1" y="17.1" width="7.6" height="6.2" rx="2" transform="rotate(0.555699 111.086 17.0861)"
            fill="#F2CBAC" />
        <path
            d="M115.5 102.1C122.7 107.4 133.5 109.8 137.1 110.1L148.9 95.4 145.2 93.6C145.2 93.6 141.6 81.8 134.2 70L130.5 59.1C130.5 59.1 128.3 55.3 126.2 56.3 124 57.2 124.1 59.7 124.6 62.9 127 66 127.2 72 127.7 73.7 128.3 75.3 128.5 76.2 128.2 76.6L98.9 54.3C97.7 53.7 95 52.8 94 54.2 93 55.6 93.9 57.2 94.5 57.8L116 75 115.3 75.7C107.5 70.3 105.8 68.8 105 68.1 104.1 67.2 102.3 66.8 100.9 68.4 99.8 69.7 101.1 71.3 101.9 72L112 81.5 111.4 82 101.5 75C100.8 74.8 99.1 74.7 98.2 75.8 97.4 76.8 98.2 78.4 98.7 79L108.6 88.6 107.9 89.4C102.3 85.6 104.4 86.2 102.1 84.4 99.3 82 98 82.8 96.7 84.2 95.6 85.4 97.6 87.2 98.7 88 105.9 93.3 108.3 96.7 115.5 102.1Z"
            fill="#F2CBAC" />
        <path d="M155.8 98.9L139.8 117.5 180.9 156.8 227.1 151.4 155.8 98.9Z" fill="#EE6D67" />
        <path d="M147.3 92.5L132.6 110.7 140 118.1 157 99.2 147.3 92.5Z" fill="#F92E30" />
        <path
            d="M94.2 65C92.8 64.8 91.3 64.3 90 63.4 85.7 60.5 84.6 54.6 87.6 50.3 90.6 45.9 96.5 44.8 100.9 47.8 102.2 48.7 103.3 49.9 104 51.2"
            style="stroke-linejoin:round;stroke-width:2;stroke:#8CC2DD" />
    </g>
    <defs>
        <linearGradient id="paint0_linear" x1="94" y1="11" x2="94" y2="88" gradientUnits="userSpaceOnUse">
            <stop stop-color="#FAFAF3" />
            <stop offset="1" stop-color="#DEEAEF" />
        </linearGradient>
        <clipPath id="clip0">
            <rect width="181" height="118" fill="white" transform="translate(0.976562)" />
        </clipPath>
    </defs>
</svg>