<svg xmlns="http://www.w3.org/2000/svg" viewBox="0 0 999 788" fill="none">
  <path d="M67 621c-7 0-12-5-15-13-4-12-3-30 3-47 7-21 20-38 38-48v-1l1-13c-8 11-21 26-35 26h-4c-19-4-28-38-26-67 1-14 5-27 11-36 7-11 18-17 30-17 11-1 20 3 26 10 13 16 11 46 9 62v25l11-14c10-17 22-46 22-94-7 0-16-2-21-8-4-6-5-17-1-25 2-5 7-9 13-9 4 0 8 2 11 5 5 5 7 15 8 22l11-5c15-7 25-8 30-4s5 12 2 42l-3 34c0 12 1 16 2 18 8-2 18-16 21-33l1-4 1-9v-3c5-31 17-84 51-85 7 0 14 3 18 9 14 16 7 49 6 56-2 9-7 24-15 36-9 14-20 21-32 20-10 0-16-6-20-12-5 19-18 34-31 36-3 0-5-1-7-3-8-7-6-28-3-61 1-12 3-27 2-32-2 0-7 0-19 5l-14 8c0 22-2 43-7 62-4 15-10 29-18 41-7 11-14 19-20 23v2c0 1 0 23-4 47-2 14-6 25-10 33-5 12-13 19-21 20l-2 1zm26-95a81 81 0 00-31 78c1 2 3 6 5 6 9-2 17-18 22-45 3-16 4-31 4-39zM72 416h-1c-9 0-16 4-22 12-5 8-8 18-9 31s1 26 4 37 8 17 13 18c10 2 22-14 29-24l5-6 2-2 1-7c2-16 3-41-7-53-3-4-8-6-15-6zm152 2c1 5 5 22 18 22 17 2 31-27 35-48 4-17 4-38-3-46-3-3-6-5-10-5-26 1-36 50-40 77zm-95-55c-1 0-3 1-3 3-2 4-2 10 0 13s7 4 11 4c0-7-2-15-5-18l-3-2z" fill="#000"/>
  <path d="M303 431c-8 0-14-7-19-22l-6-20c0-3 2-6 5-7 3 0 5 2 6 5l5 17c5 15 9 16 9 16 2 0 6-3 8-8 4-6 5-13 5-15l8-49 5-29c-11-5-17-16-15-30 1-8 5-17 11-23 6-8 15-12 24-12 1 0 6 0 8 5 3 4 0 8-4 15-5 8-13 21-13 39v4l-5 33-8 48c0 4-2 12-6 19-6 12-13 14-18 14zm42-165c-11 2-19 13-20 25-1 4-1 11 4 15 2-17 10-30 15-38l1-2z" fill="#000"/>
  <path d="M351 411c-6 0-11-2-13-6-2-3-1-6 1-8 3-2 6-1 8 2h10c10-3 21-11 21-21 0-37-45-58-46-58-2-1-4-5-2-7 1-3 4-4 7-3 0 0 13 6 26 17 17 15 26 32 26 51 0 16-15 27-28 31l-10 2z" fill="#000"/>
  <path d="M424 388l-8-1c-3 0-5-3-5-6 1-3 3-5 6-5 18 2 30-2 34-13 5-15-4-39-16-48l-22-13c-1 31-5 55-13 70-7 13-14 15-16 15l-2-11v1c0-1 18-7 20-80-14-10-19-23-15-36 5-15 20-27 34-27 4 0 5 2 6 4 2 3 0 7-3 13-4 8-11 21-11 39 5 2 16 7 29 17 15 10 27 40 19 60-3 7-8 13-15 16-6 3-13 5-22 5zm-10-142c-7 3-14 10-16 18-3 7-1 13 4 19 2-17 8-29 12-37zM516 452c-6 0-11-2-17-7-6-6-8-15-6-28 4-26 25-60 37-79 9-14 25-37 35-46v-62c-1-9-1-30 3-54 4-21 12-50 29-69 11-13 25-20 41-21 10 0 18 2 24 6 5 4 8 10 9 17 2 9 0 18-4 26-5 9-11 15-18 17-3 1-6-1-7-3-1-3 1-6 4-7 9-3 16-19 14-31-1-9-8-14-21-14-13 1-25 7-34 17-30 34-31 103-29 115v53c8-8 22-19 38-25 0-18 3-33 8-44 4-10 10-16 18-20 11-4 22 1 26 5 12 13 12 24 9 32-2 9-9 16-19 23-9 6-20 10-32 13l-3 1c-24 6-43 28-45 31-1 27-2 55-4 67-4 21-10 41-18 56-9 16-19 27-30 30l-8 1zm48-143c-7 9-17 22-27 39-20 31-32 58-34 74 0 7 1 12 4 15 4 4 9 5 14 4 7-3 16-12 23-25a198 198 0 0020-107zm85-106l-5 1c-7 2-17 12-19 50 20-4 36-15 40-27 2-7 0-14-7-21-1-1-4-3-9-3z" fill="#000"/>
  <path d="M650 303h-2c-27-1-34-39-34-41-1-3 1-6 4-6 3-1 6 1 7 4 0 1 5 31 24 32 21 1 37-23 43-38l2-18c1-16 2-39 11-58 12-24 32-38 61-40 3 0 6 2 6 5 1 3-2 5-5 6-25 2-42 13-52 33-8 18-9 39-10 55-1 10-1 17-3 21-7 18-26 45-52 45z" fill="#000"/>
  <path d="M719 276h-3c-8-1-14-6-18-14-3-5-5-12-5-14 1-3 3-5 6-5s5 3 5 5c1 3 5 16 13 17 4 0 8-1 11-4 15-11 24-43 25-57 2-17 2-172 2-174 0-3 2-6 5-6s6 3 6 6c0 6 0 157-2 175-2 14-11 50-29 65-5 4-11 6-16 6z" fill="#000"/>
  <path d="M778 253l-2-1c-11-1-18-17-23-49 0-3 2-6 5-7 3 0 6 2 6 5 5 38 13 40 14 41 3 0 10-6 18-24 2-3 5-4 8-3 2 1 4 5 2 7-9 20-19 31-28 31zM549 247c-2 0-4-1-5-3-2-3 0-6 2-7l54-25c3-1 6 0 7 3 2 2 1 6-2 7l-54 25h-2zM306 674h-4c-11-2-19-9-24-19-4-9-6-20-5-33 2-29 18-61 40-62 10-1 19 4 26 13 10 13 13 34 7 53-8 29-25 48-40 48zm8-103h-1c-13 0-27 25-29 52-1 8-1 36 20 40h2c8 0 22-14 29-40 5-15 3-33-5-44-3-4-8-8-16-8z" fill="#000"/>
  <path d="M318 773l-12-3c-6-4-13-11-13-27 0-13 7-32 17-50 7-12 17-26 27-33l1-51c0-3 2-6 5-6 3 1 6 3 6 6l-1 44c13-8 24-23 32-36-4-14-5-31 2-40 3-3 7-5 12-4s8 5 9 11c1 9-4 22-10 34 2 4 6 11 13 11 7 1 12-3 17-12 5-8 8-20 9-33-27-6-37-23-37-38 0-13 7-23 15-23 10-2 18 3 24 12s10 23 10 39c10 0 18-5 24-10-1-17 4-37 13-42 3-2 7-2 10 1 7 5 5 18 0 27-2 7-6 13-11 19v2c3 14 12 22 25 23 8 1 15-3 20-11 5-10 8-25 7-39a45 45 0 01-38-36c-1-10 3-17 11-19 10-2 19 1 25 10 7 8 11 20 13 34 11-2 17-14 24-34 5-14 11-29 21-42 13-15 29-23 50-25 3 0 6 2 6 5s-2 6-5 6c-41 4-52 33-62 59-4 11-7 21-13 29s-12 12-21 13c1 16-2 33-9 44-6 11-16 18-27 18l-3-1c-17-2-29-12-34-28-7 5-16 8-27 8-1 14-5 28-10 38-7 12-17 18-28 17-7 0-14-4-19-12-11 17-25 31-38 38l-3 69c-1 4-5 29-19 36l-8 2zm18-98l-16 23c-10 17-16 34-16 46 0 8 2 13 7 16 6 3 9 2 10 1 7-3 11-18 13-27v-1l2-58zm55-91h-1c-2 3-3 10-2 18l4-11v-7h-1zm22-51h-2c-1 1-5 6-5 13 0 5 2 21 27 26-1-12-3-24-8-31-3-5-7-8-12-8zm71 1l-4 11v5c3-7 4-13 4-16zm27-35l-3 1c-2 0-3 3-3 7 1 5 4 12 9 17 4 3 10 7 17 9-1-11-4-21-9-28-4-5-8-6-11-6z" fill="#000"/>
  <path d="M593 563c-4 0-8-2-11-4-13-9-17-30-13-63 0-3 3-5 6-5 3 1 5 4 5 7-5 39 4 49 8 52s10 1 14-1c11-5 23-21 23-37v-9l1-18-2-149c0-3 2-6 5-6h1c3 0 5 3 5 6l2 148-1 20v8c0 9-4 19-9 28-6 9-13 15-20 19-5 2-9 4-14 4z" fill="#000"/>
  <path d="M656 547h-2c-8-1-16-8-21-21-6-11-8-26-7-39 0-3 3-5 6-5s5 3 5 6c-2 24 10 47 19 48 4 1 10-8 13-28 1-2 3-23 9-44 8-31 19-47 32-47l1 1c8 0 14 6 17 17 2 9 2 19 3 30 0 9 1 20 3 27l2-11c5-17 13-26 23-27 1-1 3 0 4 1l2 3c0 1 4 30 23 31s33-18 40-36c0 0 16-42 16-66v-13c-19-15-18-28-15-35 5-12 21-20 32-18 1 0 4 0 5 3 2 3 0 6-1 8-2 3-8 12-10 38v17c0 26-16 68-17 70-3 7-8 19-18 29-9 10-21 15-33 14-11 0-21-8-27-21-2-4-4-8-4-12-8 7-12 27-13 37 0 2-3 5-5 5-8-1-13-6-16-17l-2-27c-1-16-2-36-10-37-3 0-12 3-21 39-6 21-9 42-9 43-2 12-5 22-9 28-5 8-11 9-15 9zm196-214c-5 1-11 5-13 10-2 6 1 12 6 17 1-13 4-22 7-27z" fill="#000"/>
  <path d="M672 527h-1c-3-1-5-4-4-7v-88c0-3 2-5 5-5h1c3 0 5 2 5 5 0 14 1 83-1 91 0 3-3 4-5 4zM865 470c-5 0-11-1-16-4-3-2-4-5-2-8 1-2 5-3 7-2 10 6 17 3 22 0 10-6 16-21 14-35-1-11-8-32-42-44-3-1-4-5-3-7 1-3 4-5 7-4 15 6 27 14 36 24 7 8 12 19 13 30 2 18-6 37-19 45-5 4-11 5-17 5z" fill="#000"/>
  <path d="M882 464c-2 0-4-1-5-4-1-2 0-6 3-7 31-12 45-42 43-95v-3c-17-9-20-25-16-36a38 38 0 0142-28l2 1c4 0 5 3 5 4 0 2 0 5-4 7-15 6-18 28-18 45 12 7 23 16 30 27 8 13 12 26 10 37-1 8-6 15-12 20-7 5-16 9-28 10-3 0-6-2-6-5s2-6 5-6c12-1 27-6 30-21 2-8-1-19-8-29-5-8-13-15-21-20 0 25-2 45-8 60-8 21-22 35-42 43h-2zm52-160c-8 3-14 10-17 18-2 8 0 15 6 20 1-15 4-26 9-35l2-3zM759 465l-3-2-2-4c0-24 3-43 9-54 6-13 15-16 21-16 7 0 12 4 15 7 13 13 13 26 10 34-5 16-24 30-48 34l-2 1zm25-65c-8 0-17 14-19 52 17-5 30-15 33-26 3-7 0-15-7-23-1-1-4-3-7-3z" fill="#000"/>
</svg>