<svg class="SoulRefinerLogo" xmlns="http://www.w3.org/2000/svg" width="200px" height="26px" viewBox="0 0 200 26" fill="none">
    <path d="M200 25C198.3 25 196.5 25 194.8 25 194.5 25 194.3 24.9 194.2 24.7 193.1 22.6 192 20.6 190.9 18.6 190.7 18.4 190.6 18.3 190.4 18.3 190.1 18.3 189.7 18.3 189.4 18.3 189.4 20.5 189.4 22.7 189.4 25 187.5 25 185.7 25 183.8 25 183.8 18.7 183.8 12.5 183.8 6.2 183.9 6.2 184 6.2 184 6.2 186.9 6.2 189.7 6.2 192.5 6.2 194.3 6.2 196 6.5 197.4 7.6 198.6 8.5 199.2 9.7 199.4 11.2 199.5 12.1 199.5 13 199.2 13.8 198.8 15.4 197.8 16.5 196.3 17.2 196.2 17.2 196.1 17.3 196 17.3 196 17.4 196 17.4 196.1 17.5 197.3 19.6 198.6 21.6 199.9 23.7 199.9 23.8 199.9 23.8 200 23.9 200 24.2 200 24.6 200 25ZM189.4 14.3C190.1 14.3 190.7 14.3 191.4 14.3 191.6 14.3 191.8 14.3 192.1 14.2 193.3 14 194 13 193.8 11.8 193.7 11.2 193.4 10.8 192.8 10.7 191.7 10.3 190.6 10.4 189.4 10.4 189.4 11.7 189.4 13 189.4 14.3ZM160.7 6.2C158.9 6.2 157.1 6.2 155.2 6.2 155.3 9.8 155.3 13.3 155.4 16.9 155.2 16.8 155.2 16.7 155.1 16.6 153.1 13.2 151 9.8 149 6.5 148.9 6.2 148.8 6.2 148.5 6.2 146.6 6.2 144.8 6.2 142.9 6.2 142.8 6.2 142.7 6.2 142.6 6.2 142.6 12.5 142.6 18.7 142.6 25 144.4 25 146.2 25 148 25 148 21.4 147.9 17.9 147.9 14.3 147.9 14.3 147.9 14.3 148 14.3 148 14.4 148.1 14.6 148.2 14.7 150.1 17.9 152.1 21 154 24.3 154.4 24.8 154.7 25 155.4 25 157.1 25 158.9 25 160.7 25 160.7 18.7 160.7 12.4 160.7 6.2ZM109.7 17.5C109.7 16.1 109.7 14.8 109.7 13.4 109.6 13.4 109.4 13.4 109.3 13.4 107 13.4 104.7 13.4 102.5 13.4 102.2 13.4 102.1 13.4 102.1 13.1 102.1 12.3 102.1 11.6 102.1 10.8 102.1 10.5 102.2 10.4 102.5 10.4 104.9 10.4 107.3 10.4 109.7 10.4 109.9 10.4 110 10.4 110.2 10.4 110.2 9 110.2 7.6 110.2 6.2 105.6 6.2 101.1 6.2 96.6 6.2 96.6 12.5 96.6 18.7 96.6 25 101.3 25 106 25 110.7 25 110.7 23.5 110.7 22.1 110.7 20.7 107.8 20.7 105 20.7 102.1 20.7 102.1 19.6 102.1 18.6 102.1 17.5 104.7 17.5 107.2 17.5 109.7 17.5ZM179.1 6.2C174.5 6.2 170 6.2 165.5 6.2 165.5 12.5 165.5 18.7 165.5 25 170.2 25 174.9 25 179.6 25 179.6 23.5 179.6 22.1 179.6 20.7 176.7 20.7 173.9 20.7 171.1 20.7 171.1 19.6 171.1 18.6 171.1 17.5 173.6 17.5 176.1 17.5 178.6 17.5 178.6 16.1 178.6 14.8 178.6 13.4 178.4 13.4 178.3 13.4 178.2 13.4 175.9 13.4 173.7 13.4 171.4 13.4 171.1 13.4 171 13.3 171 13 171 12.3 171 11.5 171 10.7 171 10.5 171.1 10.4 171.3 10.4 172.5 10.4 173.7 10.4 174.8 10.4 176.2 10.4 177.6 10.4 179.1 10.4 179.1 9 179.1 7.6 179.1 6.2ZM128.2 10.4C128.2 9 128.2 7.6 128.2 6.2 123.8 6.2 119.3 6.2 114.9 6.2 114.9 12.5 114.9 18.7 114.9 25 116.8 25 118.7 25 120.6 25 120.6 22.6 120.6 20.3 120.6 18 122.9 18 125.2 18 127.6 18 127.6 16.6 127.6 15.2 127.6 13.9 125.2 13.9 122.9 13.9 120.5 13.9 120.5 12.7 120.5 11.6 120.5 10.4 123.1 10.4 125.7 10.4 128.2 10.4ZM132.1 25C134 25 135.8 25 137.7 25 137.7 18.7 137.7 12.4 137.7 6.2 135.9 6.2 134.1 6.2 132.3 6.2 132.3 6.2 132.2 6.2 132.1 6.2 132.1 12.5 132.1 18.7 132.1 25ZM27.6 6.8C30.1 6.8 32.3 7.5 34.2 9.2 35.9 10.8 36.8 12.7 37 15 37.2 17 36.9 19 35.8 20.7 34.4 23.2 32.2 24.7 29.3 25.1 26.5 25.6 24 25.1 21.7 23.4 19.7 21.8 18.5 19.8 18.2 17.2 17.9 14.7 18.4 12.4 20 10.3 21.5 8.3 23.6 7.2 26.1 6.9 26.3 6.9 26.6 6.8 26.8 6.8 27.1 6.8 27.3 6.8 27.6 6.8ZM35 15.9C35 15.7 35 15.4 35 15.1 34.8 13.4 34.2 11.8 33 10.6 31.7 9.3 30.1 8.6 28.3 8.4 25.4 8.2 23 9.2 21.4 11.6 20.4 13.2 20.1 15.1 20.3 17 20.4 18.7 21.1 20.2 22.2 21.4 23.8 22.9 25.6 23.6 27.8 23.6 29.6 23.5 31.2 23 32.5 21.8 34.3 20.2 35 18.2 35 15.9ZM12.4 1.5C10.1 0.3 7.7 0.2 5.2 0.9 1.7 2-0.1 4.9 0.5 8.4 0.9 10.1 1.9 11.3 3.5 12.1 4.7 12.7 5.9 13.1 7.1 13.6 8.2 14 9.4 14.4 10.5 14.9 11.7 15.5 12.6 16.3 12.9 17.6 13.5 19.9 12.7 22 10.3 23.1 7.7 24.3 5.2 24 2.8 22.3 2.3 21.9 1.9 21.4 1.4 20.9 0.9 21.3 0.5 21.7 0 22.1 0.6 22.6 1.1 23.2 1.7 23.6 4.4 25.7 7.4 26 10.6 24.9 14.3 23.7 15.8 20.3 14.8 16.8 14.3 15.1 13.1 14 11.5 13.3 10.3 12.8 9.1 12.4 8 12 6.8 11.6 5.6 11.2 4.5 10.6 1.6 8.8 1.9 5.1 4.1 3.4 6.2 1.8 9.5 1.7 11.8 3.2 12.3 3.6 12.8 4.1 13.4 4.5 13.8 4.2 14.3 3.8 14.7 3.4 14.2 2.7 13.4 2 12.4 1.5ZM52.8 7.2C52.8 7.4 52.8 7.5 52.8 7.7 52.8 11.1 52.8 14.5 52.8 17.9 52.8 18.5 52.7 19.1 52.6 19.7 52.3 21.5 51.3 22.7 49.5 23.3 48.7 23.5 47.9 23.6 47.1 23.5 45.2 23.3 43.9 22.4 43.2 20.6 42.9 19.8 42.8 18.9 42.8 17.9 42.8 14.5 42.8 11 42.8 7.6 42.8 7.5 42.8 7.3 42.8 7.2 42.1 7.2 41.5 7.2 40.9 7.2 40.9 7.4 40.9 7.5 40.9 7.6 40.9 11 40.9 14.3 40.9 17.6 40.9 18.3 40.9 19 41 19.7 41.4 22.1 42.6 23.9 45 24.8 46.2 25.3 47.6 25.4 48.9 25.2 51.5 24.9 53.2 23.6 54.2 21.2 54.6 20.2 54.7 19.1 54.7 18 54.7 14.5 54.7 11.1 54.7 7.6 54.7 7.5 54.7 7.3 54.7 7.2 54 7.2 53.4 7.2 52.8 7.2ZM61.6 23.1C61.6 17.8 61.6 12.5 61.6 7.2 61 7.2 60.4 7.2 59.8 7.2 59.8 13.1 59.8 18.9 59.8 24.8 63.2 24.8 66.6 24.8 70 24.8 70 24.3 70 23.7 70 23.1 67.2 23.1 64.4 23.1 61.6 23.1Z" fill="#020202"/>
    <path d="M87.8 14.8C88 14.8 88.1 14.7 88.2 14.7 90.3 13.9 91.8 12.7 92.5 10.6 92.8 9.7 92.9 8.8 92.8 7.8 92.7 5.6 91.7 3.9 89.8 2.7 88.1 1.7 86.3 1.3 84.4 1.3 81.2 1.2 77.9 1.3 74.6 1.3 74.6 1.3 74.5 1.3 74.4 1.3 74.4 9.2 74.4 17.1 74.4 24.9 76.3 24.9 78.2 24.9 80.1 24.9 80.1 22.6 80.1 20.4 80.1 18.1L80.1 11.4C80.1 9.6 80.1 7.8 80.1 5.9 80.1 5.9 80.2 5.9 80.2 5.9 81.7 5.9 83.1 5.9 84.5 6 85.3 6.1 86 6.4 86.5 7 87.6 8.2 87.1 10.3 85.6 10.9 85.4 11 85.3 11 85.1 11 85.1 11.1 85 11.1 85 11.1 84.7 11.2 84.4 11.2 84.2 11.3 80.8 12.3 82.4 16.1 82.4 16.1 84 19 85.6 21.8 87.1 24.7 87.3 24.9 87.4 25 87.6 25 89.7 25 91.7 25 93.8 25 93.9 25 94 24.9 94.1 24.9 92 21.5 89.9 18.2 87.8 14.8Z" fill="#020202"/>
</svg>
