<svg xmlns="http://www.w3.org/2000/svg" width="1024" height="1024" viewBox="0 0 1024 1024" fill="none">
  <path d="M439.7 440.6h4.4v15.7h8.4v3.9h-12.8v-19.6zM465.6 440.2a10.9 10.9 0 019.2 5 9.8 9.8 0 011.4 5.1c0 1.9-.5 3.6-1.4 5.2a11 11 0 01-14.5 3.6c-1.6-.9-2.9-2.1-3.8-3.6a10.1 10.1 0 010-10.3 9.4 9.4 0 013.8-3.6c1.6-.9 3.4-1.4 5.3-1.4zm.1 3.9c-1.1 0-2.1.3-3 .8-1 .6-1.7 1.3-2.2 2.3a6 6 0 000 6.3c.5.9 1.3 1.7 2.2 2.3a6.1 6.1 0 006 0c.9-.6 1.6-1.3 2.1-2.3.6-1 .8-2 .8-3.2 0-1.1-.2-2.2-.8-3.1-.5-1-1.2-1.7-2.1-2.3-.9-.5-1.9-.8-3-.8zM494.4 460.2l-1.5-3.9h-9.1l-1.5 3.9h-4.6l8.5-19.6h4.6l8.4 19.6h-4.8zm-9.1-7.4h6.2l-3.1-7.6-3.1 7.6zM510.9 440.6c2 0 3.8.4 5.4 1.2a9.4 9.4 0 014.9 8.6c0 1.9-.4 3.6-1.3 5a9 9 0 01-3.7 3.5 12 12 0 01-5.5 1.3h-8.1v-19.6h8.3zm.1 15.8c1.1 0 2.1-.2 2.9-.7.9-.5 1.6-1.3 2.1-2.2.5-.9.7-1.9.7-3.1 0-1.2-.3-2.2-.8-3.2a5.3 5.3 0 00-2.1-2.1c-.9-.6-1.9-.8-3-.8H507v12.1h4zM525.5 440.6h4.4v19.6h-4.4v-19.6zM549.2 440.6h4.2v19.6h-4l-9.5-12.6v12.6h-4.2v-19.6h4l9.5 12.6v-12.6zM572.3 450.3h3.9v7.6c-1.1.8-2.3 1.4-3.8 1.9-1.5.4-2.9.7-4.2.7-2 0-3.7-.5-5.3-1.4-1.6-.9-2.9-2.1-3.8-3.6a10 10 0 01-1.3-5.2 9 9 0 011.4-5.1 9.4 9.4 0 013.8-3.6 11.2 11.2 0 019.7-.6c1.4.6 2.6 1.3 3.6 2.2l-2.5 3.1a7.2 7.2 0 00-2.5-1.6 6.9 6.9 0 00-6 .2 6 6 0 00-2.2 2.3 6.5 6.5 0 002.2 8.6c1 .5 2 .8 3.2.8l1.9-.3 1.9-.8v-5.2zM487.1 546l26.4 8.1-26.8 6.1-.1-.7c.8-3.3-.8-3.8-3.8-3.9a191.5 191.5 0 01-53.6-9.3 40 40 0 01-13.3-7.2c-6.4-5.6-6.4-12.5.2-17.9a56.4 56.4 0 0120.7-9.4 129 129 0 0116.6-3.7l1 4.9c.2 1-.6.8-1 .9a113 113 0 00-27.4 7.8 26.6 26.6 0 00-7.1 4.7c-2.7 2.8-2.7 5.2.1 7.8 4.3 4 9.7 6 15.1 7.8 14.4 4.7 29.3 6.5 44.3 7.6 2.1.2 4.3.1 6.4.4 1.7.3 2.4-.2 2.2-2l.1-2zM575.9 523.1l-24.6-13.5h28c-2.3 3.8.9 3.8 3.3 4.6a52 52 0 0119.2 8.9c6.7 5.5 6.8 12.5.2 18.2a29 29 0 01-5.5 3.6c-10 5.2-21 7.6-32.1 9.5a264 264 0 01-38.7 3.6c-1.4.1-1.9-.3-1.9-1.8 0-3.7 0-3.8 3.7-4 15.8-.5 31.4-1.9 46.7-5.5a77.2 77.2 0 0019.9-7c1.9-1 3.6-2.1 5.1-3.7 2.6-2.6 2.6-5 0-7.5a31.7 31.7 0 00-12.4-6.9c-2.7-1-5.4-1.7-8.1-2.6-1.3-.5-1.9-.3-2.1 1.2-.1.9-.4 1.8-.7 2.9z" fill="#000"/>
  <path d="M544.9 511.2a37 37 0 01-1.6 10.4c-2.3 6.2-6.5 8.8-13.2 8.5-5.3-.3-9.1-3.8-10.5-9.8a34.5 34.5 0 01.8-19.1c2-5.7 6.7-8.8 12.4-8.4 6.1.5 9.6 3.6 11.1 9.9.7 2.8.8 5.6 1 8.5zm-18.3.5c0 3.1.1 6.1 1.2 9 .6 1.9 1.7 3.5 4 3.5s3.4-1.6 3.9-3.5a34.2 34.2 0 000-18.5c-.5-1.8-1.5-3.4-3.7-3.4-2.2-.1-3.3 1.4-4.1 3.2a26.8 26.8 0 00-1.3 9.7zM512.4 500c-9.1-3-16.4 2-14.9 10.3a9.3 9.3 0 018.9-3.8c3 .3 5.4 1.6 6.9 4.2 2.5 4.7 2.5 9.5-.3 14-2.9 4.5-7.3 5.9-12.4 5.3-5.2-.6-8.4-3.8-9.8-8.7a26 26 0 012.8-22.2c4.5-6.8 12.2-7 18.2-5.6.4.1.6.4.6.9v5.6zm-5 17.9c-.1-2.2-.4-4.4-2.8-5.4-1.9-.8-3.9-.7-5.4 1-2.1 2.1-2 4.7-1 7.3.7 2 2 3.4 4.3 3.4 1.6.1 2.9-.6 3.8-1.9a7.4 7.4 0 001.1-4.4zM475.6 510.7c6.2 1.8 8.5 4.4 8.3 9-.1 5.1-3.3 8.7-8.9 9.9-4.2.9-8.5.7-12.6-.6-1.1-.4-1.5-.9-1.4-2.1v-5.1c3.4 2 6.8 2.9 10.5 2.3 2.7-.5 4.4-2.2 4.5-4.6.1-2.8-1.5-4.2-3.9-5-2-.6-4-.5-6-.4-1 0-1.2-.4-1.2-1.3 0-4.5-.1-4.5 4.4-4.8 3.2-.2 5.2-1.6 5.6-3.9.4-3-1.2-5-4.2-5.3-2.9-.3-5.6.5-8.3 2v-5.7c0-.5.4-.6.8-.7 4.6-1.8 9.3-2.2 14-.5 3.9 1.3 5.7 4.3 5.6 8.3-.1 4-2 6.6-5.9 8l-1.3.5zM568.1 492.3a9.5 9.5 0 11-19-.2 9.5 9.5 0 0119 .2zm-5.8-.1c0-2.1-1.7-3.8-3.8-3.7-2 0-3.6 1.7-3.7 3.7 0 2 1.7 3.7 3.8 3.7 2 0 3.7-1.6 3.7-3.7z" fill="#000"/>
</svg>